<?xml version="1.0" ?><svg data-name="Layer 1" id="Layer_1" viewBox="0 0 55 55" xmlns="http://www.w3.org/2000/svg"><title/><path d="M31.16,32a2.35,2.35,0,0,0,.23.48,7.7,7.7,0,0,0,.82,1.11,3,3,0,0,0-.92,1.35c-.46,1.61,1,2.8,2,4,1.74,2.3,3.42,4.67,5.25,6.9,2,2.42,4.55,3.46,6.77,5.54a1.27,1.27,0,0,0,1.77,0c1.83-1.79,4.64-3.3,4.64-6.23,0-2.51-2.3-3.29-4-4.55-3-2.24-5.27-5.25-7.92-7.86-1.89-1.87-3.27-2.59-5.8-1.7a1.11,1.11,0,0,0-.49-.58,2.87,2.87,0,0,0-.72-.27,22.54,22.54,0,0,0,2.37-3.74c3.83-7.52-.66-19-8.56-22.2A14.25,14.25,0,0,0,14.7,5c-2.44,1.2-7.41,3.7-8.65,6.75a1,1,0,0,0-1.28.59C.63,20.85,6,29.39,12.91,34.23,19.46,38.81,26.33,36.86,31.16,32Zm1,.62c-.1,0-.11,0,0,0Zm11.72,8.07c1.18,1.1,2.61,1.89,3.79,3,2.46,2.22.33,3.68-1.51,5.21-2.35-2-4.79-3.35-6.81-6-1.18-1.52-2.33-3.07-3.49-4.61-.41-.53-1.65-1.67-1.75-2.3-.62-.43-.61-.7,0-.8.64-.3,1.29-.58,1.94-.83a1.25,1.25,0,0,0,.72-.6C39.49,35,42.17,39.07,43.87,40.65ZM33.48,31.07h0C33.43,31,33.47,31,33.48,31.07Zm-20.36.19C8.2,27.41,4,20.89,6.58,14.44a1.17,1.17,0,0,0,1.67-1.11c-.14-2.48,7.34-6.27,9.53-7a11.21,11.21,0,0,1,10,1.43c5.69,4.08,7.76,13.47,4,19.35C27.38,34.18,20,36.63,13.12,31.26Z"/><path d="M29.27,10.07c-2.76-2.63-6.18-2.51-9.79-2.35s-5.84,2-8.09,4.52c-1.07,1.2.7,3,1.77,1.77,1.77-2,3.51-3.67,6.32-3.79s5.87-.44,8,1.62C28.67,13,30.44,11.18,29.27,10.07Z"/></svg>